<svg width="50" height="50" viewBox="0 0 50 50" fill="none" xmlns="http://www.w3.org/2000/svg">
<rect width="50" height="50" rx="10" fill="#3C82F6"/>
<path d="M19.978 34V31.606C19.87 31.846 19.594 32.194 19.15 32.65C18.718 33.106 18.142 33.52 17.422 33.892C16.702 34.252 15.862 34.432 14.902 34.432C13.462 34.432 12.202 34.084 11.122 33.388C10.042 32.68 9.202 31.738 8.602 30.562C8.002 29.374 7.702 28.06 7.702 26.62C7.702 25.18 8.002 23.872 8.602 22.696C9.202 21.508 10.042 20.56 11.122 19.852C12.202 19.144 13.462 18.79 14.902 18.79C15.826 18.79 16.636 18.94 17.332 19.24C18.028 19.528 18.592 19.876 19.024 20.284C19.456 20.68 19.756 21.046 19.924 21.382V19.222H25.36V34H19.978ZM13.066 26.62C13.066 27.292 13.222 27.898 13.534 28.438C13.846 28.966 14.26 29.38 14.776 29.68C15.304 29.98 15.886 30.13 16.522 30.13C17.182 30.13 17.764 29.98 18.268 29.68C18.772 29.38 19.168 28.966 19.456 28.438C19.756 27.898 19.906 27.292 19.906 26.62C19.906 25.948 19.756 25.348 19.456 24.82C19.168 24.28 18.772 23.86 18.268 23.56C17.764 23.248 17.182 23.092 16.522 23.092C15.886 23.092 15.304 23.248 14.776 23.56C14.26 23.86 13.846 24.28 13.534 24.82C13.222 25.348 13.066 25.948 13.066 26.62ZM33.8363 34H28.3643V19.222H33.8363V21.508H33.7463C33.8423 21.232 34.0763 20.884 34.4483 20.464C34.8203 20.032 35.3423 19.648 36.0143 19.312C36.6863 18.964 37.5083 18.79 38.4803 18.79C39.1643 18.79 39.7943 18.898 40.3703 19.114C40.9463 19.318 41.3663 19.516 41.6303 19.708L39.5063 24.154C39.3383 23.95 39.0383 23.74 38.6063 23.524C38.1863 23.296 37.6583 23.182 37.0223 23.182C36.2903 23.182 35.6843 23.368 35.2043 23.74C34.7363 24.112 34.3883 24.562 34.1603 25.09C33.9443 25.618 33.8363 26.116 33.8363 26.584V34Z" fill="white"/>
<circle cx="8" cy="8" r="3" fill="white"/>
</svg>
